#!OML:ASF F:\VICON\USERDATA\INSTALL\rory3\rory3.ASF
:FULLY-SPECIFIED
:DEGREES
5245
root 6.62315 16.8056 -4.68293 2.21223 -62.8284 0.344892
lowerback 11.3763 1.41712 -0.0767293
upperback 1.91476 2.02521 5.21571
thorax -4.57196 0.995192 5.22641
lowerneck -23.5897 7.81976 -4.20963
upperneck 24.758 12.7177 -0.467384
head 11.7745 5.17628 2.60252
rclavicle -2.90226e-014 4.77083e-015
rhumerus -31.9828 24.9496 -90.2813
rradius 125.299
rwrist -11.1052
rhand -10.6733 23.7551
rfingers 7.12502
rthumb 15.3352 -5.65631
lclavicle -2.90226e-014 4.77083e-015
lhumerus -15.9672 -2.45323 86.9783
lradius 126.724
lwrist -3.20687
lhand -15.7778 8.52049
lfingers 7.12502
lthumb 10.4146 38.2426
rfemur -6.77533 1.83832 8.93296
rtibia 45.8162
rfoot -25.0365 3.80198
rtoes -17.4068
lfemur -33.4965 5.42826 -12.5727
ltibia 48.1201
lfoot -9.41158 -2.42543
ltoes -18.7357
5246
root 6.64553 16.9216 -4.62448 1.92061 -63.2662 0.787384
lowerback 11.3132 1.53954 0.061016
upperback 1.91772 2.19963 5.1432
thorax -4.54184 1.07865 5.04311
lowerneck -23.7001 7.94942 -4.08635
upperneck 24.7931 12.9378 -0.706548
head 11.834 5.247 2.54094
rclavicle 5.56597e-015 -2.54444e-014
rhumerus -32.3555 24.9279 -90.5157
rradius 125.377
rwrist -10.5913
rhand -10.5927 23.6356
rfingers 7.12502
rthumb 15.4128 -5.7698
lclavicle 5.56597e-015 -2.54444e-014
lhumerus -16.4997 -2.58746 86.8485
lradius 126.607
lwrist -2.98203
lhand -15.677 8.33399
lfingers 7.12502
lthumb 10.5118 38.0512
rfemur -6.70179 2.94671 8.5237
rtibia 44.9069
rfoot -23.3896 3.80596
rtoes -13.7707
lfemur -32.8024 5.19602 -12.8357
ltibia 46.9424
lfoot -8.27236 -2.38879
ltoes -19.5153
5247
root 6.66704 17.0454 -4.57065 1.592 -63.6667 1.29419
lowerback 11.2681 1.67998 0.0994758
upperback 1.91857 2.38801 5.09746
thorax -4.52912 1.17111 4.94337
lowerneck -23.8664 8.01855 -4.15961
upperneck 24.8471 13.1311 -0.881228
head 11.8936 5.29383 2.53105
rclavicle 4.21423e-014 2.22639e-014
rhumerus -32.7597 25.0264 -90.6634
rradius 125.404
rwrist -10.1599
rhand -10.5769 23.6007
rfingers 7.12502
rthumb 15.4281 -5.80355
lclavicle 4.21423e-014 2.22639e-014
lhumerus -17.115 -2.7614 86.7488
lradius 126.49
lwrist -2.58505
lhand -15.6606 8.21811
lfingers 7.12502
lthumb 10.5276 37.9345
rfemur -6.70385 3.96356 8.15445
rtibia 44.0275
rfoot -21.6646 3.17966
rtoes -12.3883
lfemur -32.2162 4.98034 -13.0863
ltibia 45.7961
lfoot -6.88065 -2.5064
ltoes -19.7332
5248
root 6.69206 17.1544 -4.51957 1.33419 -63.922 1.8086
lowerback 11.1667 1.77072 0.135555
upperback 1.89874 2.50957 5.0334
thorax -4.49978 1.23099 4.83694
lowerneck -23.9716 8.06857 -4.22174
upperneck 24.8237 13.2749 -1.02739
head 11.911 5.32975 2.51555
rclavicle -1.31198e-014 -2.22639e-014
rhumerus -33.1446 25.1859 -90.8432
rradius 125.334
rwrist -9.74209
rhand -10.6611 23.9031
rfingers 7.12502
rthumb 15.347 -5.50732
lclavicle -1.31198e-014 -2.22639e-014
lhumerus -17.6571 -3.01412 86.5835
lradius 126.281
lwrist -2.21736
lhand -15.9109 8.30524
lfingers 7.12502
lthumb 10.2861 38.0337
rfemur -6.78382 4.53035 7.82951
rtibia 43.2022
rfoot -19.851 2.28571
rtoes -12.9059
lfemur -31.8461 4.6542 -13.2957
ltibia 44.706
lfoot -5.14333 -2.63744
ltoes -17.1501
5249
root 6.71837 17.2606 -4.4706 1.17083 -64.1048 2.12201
lowerback 11.1383 1.82544 0.327569
upperback 1.9212 2.59849 4.93104
thorax -4.45437 1.27069 4.60508
lowerneck -23.9195 8.14748 -4.10477
upperneck 24.6034 13.3941 -1.26502
head 11.8436 5.37404 2.42115
rclavicle 1.15295e-014 5.88403e-014
rhumerus -33.3679 25.2481 -91.1138
rradius 125.179
rwrist -9.26849
rhand -10.4754 24.0191
rfingers 7.12502
rthumb 15.5258 -5.3776
lclavicle 1.15295e-014 5.88403e-014
lhumerus -18.121 -3.31722 86.2934
lradius 126.018
lwrist -2.14366
lhand -16.2974 8.64993
lfingers 7.12502
lthumb 9.91323 38.3965
rfemur -6.79403 5.17996 7.61576
rtibia 42.4499
rfoot -18.2339 1.43785
rtoes -12.3393
lfemur -31.4491 4.25175 -13.3656
ltibia 43.6875
lfoot -3.20204 -2.57567
ltoes -11.1286
5250
root 6.7467 17.3717 -4.42394 0.815685 -64.1764 2.6344
lowerback 11.1356 1.85633 0.41529
upperback 1.9647 2.64286 4.81223
thorax -4.40085 1.28993 4.42215
lowerneck -23.9303 8.26377 -3.96089
upperneck 24.4209 13.5514 -1.46431
head 11.801 5.44006 2.34773
rclavicle -4.73108e-014 -4.29375e-014
rhumerus -33.5062 25.3294 -91.3347
rradius 124.983
rwrist -8.73202
rhand -10.2715 23.9492
rfingers 7.12502
rthumb 15.7221 -5.43218
lclavicle -4.73108e-014 -4.29375e-014
lhumerus -18.583 -3.50903 86.0348
lradius 125.783
lwrist -2.22596
lhand -16.5505 8.8975
lfingers 7.12502
lthumb 9.66902 38.6556
rfemur -6.85553 5.74032 7.29074
rtibia 41.7932
rfoot -16.8251 0.600547
rtoes -10.8995
lfemur -31.1214 3.67297 -13.4612
ltibia 42.7342
lfoot -1.42528 -2.76618
ltoes -10.0465
5251
root 6.77511 17.4799 -4.38177 0.616804 -64.1845 2.97493
lowerback 11.1577 1.92591 0.436149
upperback 2.00199 2.73436 4.7609
thorax -4.37739 1.33404 4.34152
lowerneck -24.052 8.34906 -3.87599
upperneck 24.3494 13.6792 -1.5838
head 11.8116 5.48958 2.31703
rclavicle -4.8901e-014 -5.24792e-014
rhumerus -33.7789 25.4025 -91.4094
rradius 124.805
rwrist -8.14675
rhand -10.6503 24.0729
rfingers 7.12502
rthumb 15.3573 -5.33682
lclavicle -4.8901e-014 -5.24792e-014
lhumerus -19.111 -3.66068 85.8899
lradius 125.605
lwrist -2.3217
lhand -16.6014 8.86859
lfingers 7.12502
lthumb 9.6199 38.6289
rfemur -6.96076 6.17985 7.10718
rtibia 41.2623
rfoot -15.5381 -0.580445
rtoes -9.67463
lfemur -30.8756 3.11859 -13.4306
ltibia 41.8381
lfoot 0.329195 -3.45585
ltoes -15.8226
5252
root 6.80078 17.5804 -4.34498 0.672857 -64.2705 2.99162
lowerback 11.167 2.07584 0.536559
upperback 2.09619 2.93694 4.69618
thorax -4.29024 1.4305 4.18541
lowerneck -24.2649 8.38939 -3.58118
upperneck 24.2559 13.7003 -1.80754
head 11.8583 5.4942 2.20566
rclavicle -4.17448e-014 1.90833e-014
rhumerus -34.0653 25.3751 -91.497
rradius 124.655
rwrist -7.84464
rhand -11.2345 24.257
rfingers 7.12502
rthumb 14.7946 -5.19492
lclavicle -4.17448e-014 1.90833e-014
lhumerus -19.4865 -3.93398 85.7082
lradius 125.415
lwrist -2.40271
lhand -16.4389 8.66732
lfingers 7.12502
lthumb 9.77669 38.4204
rfemur -7.09745 6.6289 7.10942
rtibia 40.87
rfoot -14.5161 -1.76278
rtoes -8.00059
lfemur -30.6307 2.7623 -13.2317
ltibia 40.9964
lfoot 2.4097 -3.91463
ltoes -15.409
5253
root 6.82969 17.6699 -4.31195 0.60334 -64.2317 3.20512
lowerback 11.1522 2.21643 0.610364
upperback 2.17199 3.12298 4.56544
thorax -4.20434 1.52001 3.97798
lowerneck -24.4716 8.32871 -3.38893
upperneck 24.1229 13.593 -1.9683
head 11.8766 5.44347 2.10854
rclavicle 2.38542e-014 -7.95139e-015
rhumerus -34.2541 25.2283 -91.6593
rradius 124.427
rwrist -7.68722
rhand -11.5303 24.2491
rfingers 7.12502
rthumb 14.5096 -5.22356
lclavicle 2.38542e-014 -7.95139e-015
lhumerus -19.7067 -4.29013 85.5336
lradius 125.2
lwrist -2.33393
lhand -16.1381 8.49239
lfingers 7.12502
lthumb 10.0669 38.2316
rfemur -7.28964 6.75026 7.02254
rtibia 40.611
rfoot -13.9677 -2.22929
rtoes -7.35684
lfemur -30.5567 2.33979 -13.0876
ltibia 40.2336
lfoot 4.45303 -4.37243
ltoes -14.5271
5254
root 6.86085 17.7476 -4.28542 0.199995 -64.0266 3.79548
lowerback 11.1753 2.27065 0.482116
upperback 2.20647 3.17486 4.40243
thorax -4.18193 1.54734 3.87017
lowerneck -24.5311 8.28368 -3.43961
upperneck 23.9316 13.5245 -1.92905
head 11.807 5.42478 2.11444
rclavicle -2.94201e-014 2.22639e-014
rhumerus -34.4398 25.1422 -91.8559
rradius 124.134
rwrist -7.37631
rhand -11.7739 24.2009
rfingers 7.12502
rthumb 14.2749 -5.2885
lclavicle -2.94201e-014 2.22639e-014
lhumerus -19.9385 -4.46318 85.2577
lradius 125.04
lwrist -2.06675
lhand -15.7508 8.32623
lfingers 7.12502
lthumb 10.4405 38.047
rfemur -7.45201 6.5694 6.81404
rtibia 40.5024
rfoot -13.841 -1.59432
rtoes -7.37545
lfemur -30.595 1.79145 -13.0575
ltibia 39.5347
lfoot 6.25124 -5.2965
ltoes -16.3829
5255
root 6.88488 17.8182 -4.26586 0.0923702 -63.9244 4.0627
lowerback 11.0901 2.28863 0.330974
upperback 2.286 3.17293 4.32771
thorax -4.05522 1.54714 3.88078
lowerneck -24.4743 8.33058 -3.52746
upperneck 23.561 13.5954 -1.95172
head 11.6481 5.47001 2.11375
rclavicle -4.96962e-014 0
rhumerus -34.6744 25.4217 -92.0578
rradius 123.82
rwrist -7.24986
rhand -12.4306 24.528
rfingers 7.12502
rthumb 13.6421 -5.00492
lclavicle -4.96962e-014 0
lhumerus -20.1322 -4.39669 84.7995
lradius 124.93
lwrist -1.85288
lhand -15.5036 8.31825
lfingers 7.12502
lthumb 10.679 38.0269
rfemur -7.67174 6.46977 6.83409
rtibia 40.5727
rfoot -13.6223 -0.353107
rtoes -6.79102
lfemur -30.6324 1.25786 -12.7722
ltibia 38.8782
lfoot 8.06601 -5.92458
ltoes -17.9167
